<?xml version="1.0" standalone="no"?><!-- Generator: Gravit.io --><svg xmlns="http://www.w3.org/2000/svg" xmlns:xlink="http://www.w3.org/1999/xlink" style="isolation:isolate" viewBox="0 0 500 169.135" width="500" height="169.135"><defs><clipPath id="_clipPath_TMwS2WDYZoTkA37BUtbehWLFg3DIbq2P"><rect width="500" height="169.135"/></clipPath></defs><g clip-path="url(#_clipPath_TMwS2WDYZoTkA37BUtbehWLFg3DIbq2P)"><path d=" M 203.846 46.2 C 203.853 46.189 203.861 46.181 203.867 46.171 C 203.88 46.149 203.89 46.127 203.903 46.106 C 203.934 46.053 203.964 46.001 203.992 45.946 C 204.01 45.91 204.028 45.873 204.044 45.836 C 204.068 45.785 204.091 45.733 204.112 45.68 C 204.129 45.638 204.144 45.596 204.158 45.553 C 204.175 45.505 204.191 45.457 204.205 45.407 C 204.219 45.358 204.231 45.309 204.242 45.26 C 204.253 45.216 204.262 45.171 204.271 45.126 C 204.281 45.071 204.289 45.016 204.296 44.961 C 204.301 44.92 204.306 44.878 204.31 44.836 C 204.315 44.776 204.317 44.717 204.319 44.657 C 204.32 44.632 204.323 44.607 204.323 44.581 C 204.323 44.566 204.321 44.551 204.32 44.536 C 204.32 44.479 204.316 44.423 204.312 44.367 C 204.309 44.321 204.306 44.275 204.3 44.23 C 204.295 44.184 204.287 44.138 204.279 44.092 C 204.27 44.039 204.262 43.986 204.251 43.934 C 204.242 43.897 204.232 43.86 204.222 43.822 C 204.207 43.765 204.192 43.707 204.174 43.651 C 204.163 43.617 204.149 43.583 204.137 43.549 C 204.116 43.493 204.096 43.437 204.072 43.382 C 204.056 43.344 204.036 43.308 204.018 43.271 C 203.995 43.223 203.972 43.174 203.946 43.127 C 203.921 43.083 203.894 43.04 203.867 42.996 C 203.843 42.959 203.821 42.921 203.797 42.886 C 203.764 42.838 203.728 42.792 203.692 42.746 C 203.669 42.716 203.647 42.686 203.623 42.657 C 203.585 42.612 203.545 42.57 203.505 42.528 C 203.478 42.499 203.452 42.47 203.424 42.442 C 203.386 42.405 203.347 42.371 203.308 42.336 C 203.272 42.304 203.236 42.272 203.198 42.242 C 203.164 42.215 203.128 42.189 203.092 42.163 C 203.045 42.129 202.998 42.095 202.95 42.064 C 202.937 42.056 202.926 42.046 202.913 42.039 L 177.323 26.045 C 177.305 26.034 177.287 26.025 177.27 26.015 C 177.234 25.994 177.199 25.972 177.163 25.953 C 177.141 25.941 177.118 25.929 177.096 25.918 C 177.06 25.9 177.023 25.883 176.987 25.866 C 176.957 25.853 176.929 25.839 176.899 25.826 C 176.878 25.817 176.857 25.809 176.836 25.801 C 176.788 25.782 176.739 25.765 176.69 25.748 C 176.672 25.742 176.655 25.734 176.636 25.729 C 176.631 25.727 176.625 25.726 176.62 25.724 C 176.602 25.719 176.585 25.715 176.567 25.71 C 176.51 25.693 176.453 25.679 176.395 25.666 C 176.373 25.661 176.352 25.654 176.33 25.65 C 176.315 25.647 176.301 25.646 176.287 25.643 C 176.228 25.632 176.17 25.623 176.111 25.616 C 176.069 25.61 176.027 25.605 175.985 25.602 C 175.933 25.597 175.882 25.595 175.83 25.593 C 175.781 25.592 175.732 25.59 175.683 25.591 C 175.638 25.592 175.594 25.594 175.549 25.597 C 175.532 25.598 175.514 25.598 175.496 25.6 C 175.485 25.6 175.473 25.6 175.462 25.601 C 175.437 25.604 175.413 25.608 175.389 25.611 C 175.348 25.616 175.307 25.622 175.266 25.628 C 175.252 25.63 175.239 25.632 175.225 25.634 C 175.207 25.638 175.189 25.639 175.171 25.642 C 175.148 25.647 175.127 25.653 175.105 25.658 C 175.063 25.667 175.023 25.678 174.981 25.688 C 174.93 25.701 174.879 25.715 174.829 25.731 C 174.785 25.745 174.742 25.76 174.699 25.776 C 174.667 25.788 174.635 25.798 174.604 25.811 C 174.59 25.816 174.578 25.823 174.564 25.829 C 174.518 25.848 174.472 25.87 174.426 25.892 C 174.395 25.907 174.363 25.921 174.332 25.937 C 174.329 25.939 174.326 25.94 174.322 25.942 L 128.513 50.374 L 101.284 17.093 C 101.282 17.091 101.281 17.09 101.28 17.088 C 101.271 17.078 101.262 17.068 101.254 17.058 C 101.232 17.032 101.209 17.01 101.187 16.985 C 101.145 16.938 101.102 16.89 101.057 16.846 C 101.03 16.82 101.001 16.796 100.974 16.772 C 100.93 16.732 100.887 16.692 100.841 16.655 C 100.798 16.62 100.751 16.589 100.706 16.556 C 100.703 16.553 100.699 16.551 100.696 16.548 C 100.666 16.527 100.637 16.504 100.606 16.483 C 100.56 16.453 100.511 16.427 100.463 16.399 C 100.427 16.377 100.391 16.355 100.354 16.335 C 100.309 16.311 100.262 16.292 100.216 16.271 C 100.173 16.251 100.131 16.229 100.087 16.212 C 100.046 16.195 100.002 16.182 99.96 16.167 C 99.909 16.149 99.858 16.13 99.807 16.115 C 99.8 16.113 99.794 16.11 99.788 16.109 C 99.742 16.096 99.697 16.088 99.651 16.077 C 99.61 16.067 99.569 16.056 99.527 16.048 C 99.509 16.045 99.492 16.041 99.475 16.038 L 9.923 0.045 C 9.894 0.04 9.865 0.038 9.835 0.034 C 9.781 0.026 9.728 0.018 9.674 0.013 C 9.624 0.008 9.575 0.006 9.526 0.004 C 9.479 0.002 9.432 0 9.386 0 C 9.332 0 9.279 0.002 9.226 0.005 C 9.183 0.008 9.139 0.011 9.096 0.015 C 9.042 0.02 8.989 0.027 8.936 0.036 C 8.892 0.042 8.849 0.05 8.805 0.058 C 8.755 0.068 8.705 0.08 8.656 0.093 C 8.61 0.104 8.564 0.117 8.518 0.131 C 8.472 0.145 8.427 0.16 8.382 0.177 C 8.334 0.194 8.288 0.212 8.241 0.232 C 8.198 0.25 8.156 0.269 8.113 0.289 C 8.068 0.311 8.023 0.333 7.978 0.357 C 7.934 0.381 7.892 0.405 7.85 0.431 C 7.809 0.455 7.769 0.48 7.729 0.507 C 7.683 0.538 7.638 0.571 7.594 0.604 C 7.571 0.622 7.546 0.637 7.523 0.655 C 7.512 0.664 7.504 0.673 7.493 0.682 C 7.448 0.719 7.405 0.758 7.362 0.798 C 7.332 0.826 7.3 0.854 7.27 0.884 C 7.232 0.922 7.196 0.963 7.16 1.003 C 7.13 1.037 7.099 1.07 7.071 1.104 C 7.039 1.143 7.01 1.185 6.98 1.226 C 6.952 1.264 6.923 1.302 6.897 1.34 C 6.87 1.381 6.845 1.424 6.82 1.467 C 6.795 1.509 6.77 1.549 6.747 1.592 C 6.725 1.634 6.705 1.679 6.685 1.722 C 6.664 1.767 6.642 1.812 6.623 1.858 C 6.606 1.9 6.591 1.944 6.576 1.988 C 6.558 2.038 6.54 2.087 6.525 2.138 C 6.512 2.179 6.502 2.222 6.492 2.265 C 6.478 2.32 6.464 2.374 6.454 2.428 C 6.451 2.442 6.447 2.456 6.444 2.47 C 6.439 2.5 6.437 2.53 6.433 2.561 C 6.425 2.613 6.418 2.666 6.413 2.719 C 6.408 2.769 6.406 2.818 6.404 2.867 C 6.402 2.915 6.4 2.962 6.4 3.009 C 6.4 3.062 6.402 3.114 6.405 3.166 C 6.408 3.211 6.411 3.255 6.415 3.299 C 6.42 3.352 6.428 3.404 6.436 3.456 C 6.442 3.501 6.45 3.545 6.459 3.59 C 6.469 3.639 6.48 3.688 6.493 3.737 C 6.505 3.784 6.518 3.83 6.532 3.877 C 6.546 3.922 6.561 3.967 6.577 4.011 C 6.594 4.058 6.612 4.106 6.632 4.153 C 6.65 4.196 6.669 4.238 6.689 4.28 C 6.711 4.326 6.733 4.371 6.757 4.416 C 6.78 4.459 6.805 4.501 6.831 4.543 C 6.855 4.584 6.88 4.625 6.907 4.664 C 6.937 4.71 6.97 4.755 7.003 4.799 C 7.021 4.822 7.036 4.847 7.055 4.87 L 26.189 28.787 L 2.999 28.787 C 2.972 28.787 2.946 28.79 2.919 28.791 C 2.864 28.793 2.809 28.795 2.753 28.8 C 2.705 28.804 2.657 28.809 2.609 28.815 C 2.563 28.821 2.516 28.828 2.469 28.836 C 2.417 28.846 2.365 28.857 2.313 28.869 C 2.272 28.878 2.23 28.889 2.189 28.901 C 2.136 28.916 2.084 28.932 2.032 28.95 C 1.992 28.963 1.952 28.978 1.912 28.993 C 1.862 29.013 1.814 29.033 1.767 29.054 C 1.724 29.073 1.682 29.094 1.641 29.115 C 1.598 29.137 1.555 29.159 1.514 29.183 C 1.469 29.209 1.426 29.235 1.383 29.263 C 1.345 29.287 1.309 29.311 1.273 29.337 C 1.229 29.367 1.186 29.4 1.144 29.433 C 1.11 29.461 1.076 29.488 1.044 29.517 C 1.004 29.551 0.965 29.586 0.927 29.622 C 0.892 29.656 0.859 29.69 0.826 29.724 C 0.793 29.759 0.761 29.794 0.73 29.83 C 0.693 29.873 0.659 29.916 0.625 29.961 C 0.608 29.982 0.591 30.001 0.575 30.022 C 0.565 30.035 0.558 30.048 0.549 30.061 C 0.515 30.11 0.483 30.16 0.452 30.21 C 0.431 30.245 0.409 30.279 0.389 30.314 C 0.361 30.363 0.336 30.413 0.311 30.464 C 0.292 30.503 0.272 30.542 0.255 30.581 C 0.234 30.628 0.216 30.676 0.198 30.725 C 0.181 30.769 0.163 30.814 0.148 30.859 C 0.134 30.903 0.122 30.949 0.11 30.994 C 0.096 31.045 0.082 31.095 0.071 31.146 C 0.062 31.188 0.055 31.231 0.048 31.273 C 0.038 31.329 0.028 31.384 0.022 31.44 C 0.017 31.481 0.015 31.521 0.012 31.563 C 0.008 31.621 0.004 31.68 0.003 31.739 C 0.002 31.755 0 31.77 0 31.786 C 0 31.813 0.003 31.839 0.004 31.866 C 0.006 31.921 0.008 31.976 0.012 32.032 C 0.016 32.08 0.022 32.128 0.028 32.176 C 0.034 32.223 0.041 32.269 0.05 32.316 C 0.059 32.368 0.07 32.42 0.082 32.472 C 0.092 32.514 0.102 32.555 0.114 32.597 C 0.129 32.649 0.145 32.701 0.162 32.752 C 0.176 32.794 0.191 32.834 0.207 32.874 C 0.226 32.923 0.246 32.971 0.267 33.018 C 0.287 33.061 0.307 33.104 0.329 33.146 C 0.35 33.188 0.372 33.23 0.395 33.271 C 0.421 33.316 0.449 33.36 0.477 33.404 C 0.5 33.441 0.524 33.477 0.549 33.512 C 0.58 33.556 0.613 33.6 0.647 33.643 C 0.673 33.676 0.701 33.709 0.729 33.742 C 0.763 33.782 0.798 33.821 0.836 33.859 C 0.868 33.894 0.902 33.927 0.937 33.96 C 0.972 33.992 1.007 34.025 1.044 34.056 C 1.086 34.093 1.13 34.127 1.174 34.161 C 1.195 34.178 1.214 34.195 1.236 34.211 L 70.131 84.317 L 57.62 165.641 C 57.618 165.651 57.617 165.66 57.616 165.67 L 57.614 165.68 C 57.612 165.692 57.612 165.704 57.61 165.716 C 57.598 165.802 57.589 165.887 57.584 165.972 C 57.582 166.005 57.583 166.038 57.582 166.071 C 57.581 166.135 57.58 166.198 57.582 166.261 C 57.584 166.311 57.59 166.359 57.594 166.408 C 57.598 166.455 57.601 166.501 57.608 166.547 C 57.616 166.604 57.627 166.661 57.638 166.717 C 57.646 166.755 57.652 166.792 57.661 166.83 C 57.675 166.887 57.692 166.943 57.709 167 C 57.719 167.036 57.729 167.072 57.742 167.108 C 57.76 167.16 57.781 167.211 57.801 167.262 C 57.817 167.302 57.833 167.342 57.851 167.381 C 57.871 167.424 57.893 167.467 57.915 167.509 C 57.938 167.554 57.961 167.599 57.986 167.642 C 58.006 167.677 58.029 167.711 58.051 167.745 C 58.081 167.793 58.111 167.841 58.145 167.888 C 58.166 167.917 58.189 167.945 58.211 167.973 C 58.248 168.021 58.285 168.069 58.326 168.115 C 58.35 168.142 58.376 168.168 58.4 168.194 C 58.441 168.238 58.482 168.281 58.525 168.322 C 58.558 168.352 58.592 168.38 58.626 168.409 C 58.665 168.443 58.703 168.476 58.743 168.507 C 58.792 168.546 58.844 168.581 58.896 168.616 C 58.925 168.635 58.951 168.655 58.98 168.673 C 59.053 168.719 59.128 168.761 59.205 168.8 C 59.215 168.806 59.225 168.812 59.236 168.818 C 59.237 168.818 59.238 168.819 59.239 168.819 C 59.34 168.87 59.445 168.914 59.552 168.954 C 59.579 168.963 59.606 168.97 59.633 168.979 C 59.707 169.003 59.781 169.026 59.857 169.045 C 59.908 169.058 59.958 169.066 60.009 169.076 C 60.046 169.084 60.083 169.094 60.121 169.1 C 60.134 169.102 60.146 169.101 60.159 169.102 C 60.298 169.122 60.436 169.135 60.575 169.135 C 60.576 169.135 60.578 169.135 60.579 169.135 C 60.58 169.135 60.58 169.135 60.581 169.135 C 60.705 169.135 60.827 169.124 60.948 169.109 C 60.972 169.106 60.995 169.103 61.019 169.1 C 61.267 169.063 61.506 168.995 61.732 168.9 C 61.754 168.891 61.776 168.883 61.798 168.873 C 61.907 168.824 62.014 168.77 62.117 168.708 C 62.135 168.697 62.153 168.684 62.171 168.673 C 62.258 168.618 62.341 168.559 62.421 168.497 C 62.445 168.479 62.469 168.461 62.493 168.441 C 62.582 168.368 62.666 168.288 62.747 168.204 C 62.767 168.182 62.786 168.16 62.806 168.139 C 62.886 168.049 62.963 167.956 63.033 167.856 C 63.035 167.853 63.038 167.85 63.04 167.848 C 63.115 167.739 63.182 167.624 63.243 167.505 C 63.248 167.495 63.255 167.487 63.26 167.477 L 85.164 123.668 L 157.737 92.115 C 157.757 92.107 157.774 92.096 157.793 92.087 C 157.851 92.06 157.909 92.032 157.965 92.002 C 157.97 91.999 157.976 91.997 157.981 91.994 C 157.991 91.989 158 91.985 158.009 91.98 C 158.03 91.969 158.049 91.955 158.07 91.943 C 158.115 91.916 158.16 91.888 158.203 91.859 C 158.232 91.839 158.261 91.821 158.289 91.801 C 158.3 91.794 158.31 91.785 158.321 91.777 C 158.354 91.753 158.386 91.728 158.417 91.702 C 158.425 91.696 158.434 91.692 158.441 91.686 C 158.449 91.68 158.456 91.672 158.463 91.666 C 158.491 91.643 158.518 91.619 158.545 91.595 C 158.571 91.571 158.597 91.546 158.622 91.522 C 158.624 91.52 158.626 91.519 158.627 91.517 C 158.638 91.506 158.65 91.497 158.662 91.486 C 158.67 91.478 158.678 91.469 158.686 91.46 C 158.706 91.44 158.726 91.419 158.745 91.398 C 158.77 91.37 158.793 91.342 158.817 91.314 C 158.841 91.288 158.865 91.261 158.887 91.234 C 158.899 91.218 158.911 91.202 158.924 91.186 C 158.934 91.173 158.944 91.16 158.953 91.147 C 158.964 91.133 158.973 91.118 158.983 91.103 C 158.987 91.099 158.989 91.094 158.993 91.09 C 159.016 91.057 159.04 91.025 159.061 90.991 C 159.068 90.98 159.075 90.97 159.082 90.959 C 159.105 90.922 159.126 90.883 159.148 90.845 C 159.168 90.809 159.189 90.774 159.208 90.738 C 159.209 90.736 159.21 90.735 159.211 90.733 C 159.214 90.727 159.217 90.721 159.219 90.716 C 159.241 90.673 159.26 90.628 159.28 90.584 C 159.296 90.548 159.313 90.513 159.327 90.476 C 159.33 90.47 159.332 90.464 159.335 90.458 C 159.353 90.411 159.368 90.362 159.384 90.314 C 159.387 90.307 159.389 90.3 159.392 90.294 C 159.394 90.285 159.399 90.277 159.402 90.268 L 159.414 90.23 C 159.414 90.229 159.414 90.228 159.415 90.227 L 172.882 47.581 L 201.317 47.581 C 201.319 47.581 201.321 47.581 201.322 47.581 C 201.329 47.581 201.336 47.58 201.343 47.58 C 201.453 47.579 201.562 47.572 201.67 47.56 C 201.7 47.556 201.73 47.551 201.76 47.546 C 201.847 47.533 201.933 47.518 202.017 47.498 C 202.048 47.491 202.079 47.482 202.11 47.474 C 202.196 47.451 202.281 47.423 202.364 47.393 C 202.39 47.383 202.416 47.374 202.442 47.364 C 202.549 47.321 202.655 47.273 202.756 47.218 C 202.758 47.217 202.761 47.215 202.763 47.214 C 202.859 47.161 202.95 47.103 203.039 47.041 C 203.073 47.017 203.105 46.992 203.138 46.967 C 203.197 46.922 203.255 46.875 203.31 46.826 C 203.342 46.797 203.374 46.769 203.405 46.739 C 203.479 46.668 203.549 46.594 203.615 46.515 C 203.623 46.507 203.631 46.499 203.639 46.49 C 203.714 46.397 203.782 46.3 203.846 46.2 Z  M 170.661 34.691 L 155.351 83.174 L 132.386 55.105 L 170.661 34.691 Z  M 16.72 7.351 L 94.811 21.296 L 72.5 77.075 L 16.72 7.351 Z  M 149.78 85.837 L 77.673 80.29 L 99.86 24.823 L 149.78 85.837 Z  M 85.02 117.191 L 77.291 86.276 L 144.273 91.428 L 85.02 117.191 Z  M 79.79 121.003 L 66.45 147.684 L 74.073 98.134 L 79.79 121.003 Z  M 57.095 67.421 L 12.221 34.785 L 30.987 34.785 L 57.095 67.421 Z  M 177.428 33.182 L 190.868 41.582 L 174.775 41.582 L 177.428 33.182 Z  M 225.064 103.715 L 225.064 103.715 L 225.064 103.715 Q 220.076 103.715 216.197 101.775 L 216.197 101.775 L 216.197 101.775 Q 212.318 99.835 209.666 96.59 L 209.666 96.59 L 209.666 96.59 Q 207.014 93.344 205.669 89.148 L 205.669 89.148 L 205.669 89.148 Q 204.323 84.953 204.323 80.361 L 204.323 80.361 L 204.323 80.361 Q 204.323 73.949 207.054 67.893 L 207.054 67.893 L 207.054 67.893 Q 209.785 61.837 214.377 57.127 L 214.377 57.127 L 214.377 57.127 Q 218.968 52.416 224.945 49.566 L 224.945 49.566 L 224.945 49.566 Q 230.922 46.716 237.413 46.716 L 237.413 46.716 L 237.413 46.716 Q 242.401 46.716 246.24 48.696 L 246.24 48.696 L 246.24 48.696 Q 250.08 50.675 252.652 53.92 L 252.652 53.92 L 252.652 53.92 Q 255.225 57.166 256.571 61.441 L 256.571 61.441 L 256.571 61.441 Q 257.917 65.716 257.917 70.228 L 257.917 70.228 L 257.917 70.228 Q 257.917 76.561 255.225 82.617 L 255.225 82.617 L 255.225 82.617 Q 252.534 88.673 247.982 93.344 L 247.982 93.344 L 247.982 93.344 Q 243.43 98.015 237.492 100.865 L 237.492 100.865 L 237.492 100.865 Q 231.555 103.715 225.064 103.715 Z  M 227.201 94.057 L 227.201 94.057 L 227.201 94.057 Q 231.555 94.057 235.157 91.919 L 235.157 91.919 L 235.157 91.919 Q 238.759 89.782 241.371 86.457 L 241.371 86.457 L 241.371 86.457 Q 243.984 83.132 245.409 79.055 L 245.409 79.055 L 245.409 79.055 Q 246.834 74.978 246.834 71.02 L 246.834 71.02 L 246.834 71.02 Q 246.834 68.091 246.121 65.439 L 246.121 65.439 L 246.121 65.439 Q 245.409 62.787 243.944 60.808 L 243.944 60.808 L 243.944 60.808 Q 242.48 58.829 240.263 57.641 L 240.263 57.641 L 240.263 57.641 Q 238.047 56.454 235.118 56.454 L 235.118 56.454 L 235.118 56.454 Q 230.764 56.454 227.122 58.551 L 227.122 58.551 L 227.122 58.551 Q 223.48 60.649 220.868 63.974 L 220.868 63.974 L 220.868 63.974 Q 218.256 67.299 216.831 71.376 L 216.831 71.376 L 216.831 71.376 Q 215.406 75.453 215.406 79.49 L 215.406 79.49 L 215.406 79.49 Q 215.406 82.419 216.118 85.032 L 216.118 85.032 L 216.118 85.032 Q 216.831 87.644 218.335 89.663 L 218.335 89.663 L 218.335 89.663 Q 219.839 91.682 222.016 92.869 L 222.016 92.869 L 222.016 92.869 Q 224.193 94.057 227.201 94.057 Z  M 258.788 103.319 L 267.575 61.837 L 277.312 61.837 L 275.412 70.703 L 275.412 70.703 Q 278.42 66.428 282.141 63.935 L 282.141 63.935 L 282.141 63.935 Q 285.862 61.441 289.582 61.441 L 289.582 61.441 L 289.582 61.441 Q 290.374 61.441 290.77 61.481 L 290.77 61.481 L 290.77 61.481 Q 291.166 61.52 291.482 61.599 L 291.482 61.599 L 289.503 71.02 L 289.503 71.02 Q 284.991 71.099 280.993 72.88 L 280.993 72.88 L 280.993 72.88 Q 276.995 74.661 274.7 78.224 L 274.7 78.224 L 269.396 103.319 L 258.788 103.319 Z  M 288.712 103.319 L 297.499 61.837 L 308.107 61.837 L 299.319 103.319 L 288.712 103.319 Z  M 298.765 56.058 L 300.982 45.529 L 311.59 45.529 L 309.373 56.058 L 298.765 56.058 Z  M 321.881 120.972 L 321.881 120.972 L 321.881 120.972 Q 315.39 120.972 311.392 118.716 L 311.392 118.716 L 311.392 118.716 Q 307.394 116.46 305.098 112.343 L 305.098 112.343 L 312.065 106.723 L 312.065 106.723 Q 313.648 109.652 316.656 111.314 L 316.656 111.314 L 316.656 111.314 Q 319.665 112.977 323.544 112.977 L 323.544 112.977 L 323.544 112.977 Q 325.839 112.977 328.096 112.304 L 328.096 112.304 L 328.096 112.304 Q 330.352 111.631 332.212 110.206 L 332.212 110.206 L 332.212 110.206 Q 334.072 108.781 335.458 106.564 L 335.458 106.564 L 335.458 106.564 Q 336.843 104.348 337.476 101.34 L 337.476 101.34 L 338.585 96.115 L 338.585 96.115 Q 335.893 99.677 332.014 101.617 L 332.014 101.617 L 332.014 101.617 Q 328.135 103.556 324.098 103.556 L 324.098 103.556 L 324.098 103.556 Q 320.773 103.556 318.24 102.25 L 318.24 102.25 L 318.24 102.25 Q 315.706 100.944 313.925 98.727 L 313.925 98.727 L 313.925 98.727 Q 312.144 96.511 311.234 93.502 L 311.234 93.502 L 311.234 93.502 Q 310.323 90.494 310.323 87.011 L 310.323 87.011 L 310.323 87.011 Q 310.323 81.865 312.223 77.155 L 312.223 77.155 L 312.223 77.155 Q 314.123 72.445 317.329 68.882 L 317.329 68.882 L 317.329 68.882 Q 320.535 65.32 324.771 63.222 L 324.771 63.222 L 324.771 63.222 Q 329.006 61.124 333.756 61.124 L 333.756 61.124 L 333.756 61.124 Q 338.347 61.124 341.316 63.301 L 341.316 63.301 L 341.316 63.301 Q 344.285 65.478 345.71 69.12 L 345.71 69.12 L 347.214 61.837 L 356.555 61.837 L 348.084 101.34 L 348.084 101.34 Q 347.134 105.931 344.72 109.573 L 344.72 109.573 L 344.72 109.573 Q 342.305 113.214 338.822 115.747 L 338.822 115.747 L 338.822 115.747 Q 335.339 118.281 331.025 119.626 L 331.025 119.626 L 331.025 119.626 Q 326.71 120.972 321.881 120.972 Z  M 329.56 95.086 L 329.56 95.086 L 329.56 95.086 Q 332.647 95.086 335.616 93.027 L 335.616 93.027 L 335.616 93.027 Q 338.585 90.969 340.326 88.119 L 340.326 88.119 L 342.385 78.224 L 342.385 78.224 Q 341.831 74.582 339.535 72.366 L 339.535 72.366 L 339.535 72.366 Q 337.239 70.149 334.231 70.149 L 334.231 70.149 L 334.231 70.149 Q 331.618 70.149 329.283 71.495 L 329.283 71.495 L 329.283 71.495 Q 326.948 72.841 325.166 75.018 L 325.166 75.018 L 325.166 75.018 Q 323.385 77.195 322.356 79.926 L 322.356 79.926 L 322.356 79.926 Q 321.327 82.657 321.327 85.428 L 321.327 85.428 L 321.327 85.428 Q 321.327 87.486 321.921 89.228 L 321.921 89.228 L 321.921 89.228 Q 322.515 90.969 323.583 92.275 L 323.583 92.275 L 323.583 92.275 Q 324.652 93.582 326.156 94.334 L 326.156 94.334 L 326.156 94.334 Q 327.66 95.086 329.56 95.086 Z  M 373.338 104.11 L 373.338 104.11 L 373.338 104.11 Q 369.855 104.11 367.123 102.804 L 367.123 102.804 L 367.123 102.804 Q 364.392 101.498 362.492 99.202 L 362.492 99.202 L 362.492 99.202 Q 360.592 96.906 359.603 93.779 L 359.603 93.779 L 359.603 93.779 Q 358.613 90.652 358.613 87.09 L 358.613 87.09 L 358.613 87.09 Q 358.613 81.944 360.474 77.234 L 360.474 77.234 L 360.474 77.234 Q 362.334 72.524 365.461 68.962 L 365.461 68.962 L 365.461 68.962 Q 368.588 65.399 372.704 63.262 L 372.704 63.262 L 372.704 63.262 Q 376.821 61.124 381.333 61.124 L 381.333 61.124 L 381.333 61.124 Q 385.608 61.124 388.616 63.341 L 388.616 63.341 L 388.616 63.341 Q 391.625 65.558 392.733 69.12 L 392.733 69.12 L 394.316 61.995 L 404.924 61.995 L 398.749 91.127 L 398.749 91.127 Q 398.512 91.998 398.512 92.552 L 398.512 92.552 L 398.512 92.552 Q 398.512 94.215 400.412 94.294 L 400.412 94.294 L 398.512 103.319 L 398.512 103.319 Q 397.087 103.556 396.018 103.715 L 396.018 103.715 L 396.018 103.715 Q 394.949 103.873 394.158 103.873 L 394.158 103.873 L 394.158 103.873 Q 391.387 103.873 389.764 102.685 L 389.764 102.685 L 389.764 102.685 Q 388.141 101.498 388.141 99.123 L 388.141 99.123 L 388.141 99.123 Q 388.141 98.173 388.616 96.115 L 388.616 96.115 L 388.616 96.115 Q 385.608 100.073 381.531 102.092 L 381.531 102.092 L 381.531 102.092 Q 377.454 104.11 373.338 104.11 Z  M 378.088 95.086 L 378.088 95.086 L 378.088 95.086 Q 379.433 95.086 380.977 94.571 L 380.977 94.571 L 380.977 94.571 Q 382.521 94.057 383.946 93.107 L 383.946 93.107 L 383.946 93.107 Q 385.371 92.157 386.637 90.89 L 386.637 90.89 L 386.637 90.89 Q 387.904 89.623 388.775 88.119 L 388.775 88.119 L 390.833 78.224 L 390.833 78.224 Q 390.358 74.741 388.062 72.445 L 388.062 72.445 L 388.062 72.445 Q 385.766 70.149 382.758 70.149 L 382.758 70.149 L 382.758 70.149 Q 380.225 70.149 377.85 71.455 L 377.85 71.455 L 377.85 71.455 Q 375.475 72.761 373.694 74.938 L 373.694 74.938 L 373.694 74.938 Q 371.913 77.115 370.844 79.847 L 370.844 79.847 L 370.844 79.847 Q 369.775 82.578 369.775 85.428 L 369.775 85.428 L 369.775 85.428 Q 369.775 89.544 371.992 92.315 L 371.992 92.315 L 371.992 92.315 Q 374.209 95.086 378.088 95.086 Z  M 406.507 103.319 L 415.295 61.837 L 424.873 61.837 L 423.211 69.516 L 423.211 69.516 Q 426.219 65.558 430.534 63.341 L 430.534 63.341 L 430.534 63.341 Q 434.848 61.124 439.36 61.124 L 439.36 61.124 L 439.36 61.124 Q 444.269 61.124 446.485 63.539 L 446.485 63.539 L 446.485 63.539 Q 448.702 65.953 448.86 69.912 L 448.86 69.912 L 448.86 69.912 Q 452.185 65.637 456.381 63.38 L 456.381 63.38 L 456.381 63.38 Q 460.576 61.124 465.089 61.124 L 465.089 61.124 L 465.089 61.124 Q 467.78 61.124 469.561 61.876 L 469.561 61.876 L 469.561 61.876 Q 471.343 62.628 472.411 63.935 L 472.411 63.935 L 472.411 63.935 Q 473.48 65.241 473.915 66.982 L 473.915 66.982 L 473.915 66.982 Q 474.351 68.724 474.351 70.782 L 474.351 70.782 L 474.351 70.782 Q 474.351 72.049 474.193 73.672 L 474.193 73.672 L 474.193 73.672 Q 474.034 75.295 473.559 77.432 L 473.559 77.432 L 468.018 103.319 L 457.41 103.319 L 462.318 80.044 L 462.318 80.044 Q 462.555 78.857 462.714 77.788 L 462.714 77.788 L 462.714 77.788 Q 462.872 76.72 462.872 75.849 L 462.872 75.849 L 462.872 75.849 Q 462.872 73.078 461.724 71.772 L 461.724 71.772 L 461.724 71.772 Q 460.576 70.466 458.597 70.466 L 458.597 70.466 L 458.597 70.466 Q 455.668 70.466 452.62 72.92 L 452.62 72.92 L 452.62 72.92 Q 449.573 75.374 447.673 79.174 L 447.673 79.174 L 442.606 103.319 L 431.998 103.319 L 436.906 80.044 L 436.906 80.044 Q 437.381 77.59 437.381 75.77 L 437.381 75.77 L 437.381 75.77 Q 437.381 72.999 436.273 71.732 L 436.273 71.732 L 436.273 71.732 Q 435.165 70.466 433.106 70.466 L 433.106 70.466 L 433.106 70.466 Q 431.682 70.466 430.177 71.099 L 430.177 71.099 L 430.177 71.099 Q 428.673 71.732 427.209 72.88 L 427.209 72.88 L 427.209 72.88 Q 425.744 74.028 424.478 75.611 L 424.478 75.611 L 424.478 75.611 Q 423.211 77.195 422.261 79.095 L 422.261 79.095 L 417.115 103.319 L 406.507 103.319 Z  M 477.122 103.319 L 485.909 61.837 L 496.517 61.837 L 487.73 103.319 L 477.122 103.319 Z  M 487.175 56.058 L 489.392 45.529 L 500 45.529 L 497.783 56.058 L 487.175 56.058 Z " fill-rule="evenodd" fill="rgb(255,255,255)"/></g></svg>